<?xml version="1.0" standalone="no"?>
<!DOCTYPE svg PUBLIC "-//W3C//DTD SVG 20010904//EN"
 "http://www.w3.org/TR/2001/REC-SVG-20010904/DTD/svg10.dtd">
<svg version="1.0" xmlns="http://www.w3.org/2000/svg"
 width="1167.000000pt" height="833.000000pt" viewBox="0 0 1167.000000 833.000000"
 preserveAspectRatio="xMidYMid meet">

<g transform="translate(0.000000,833.000000) scale(0.100000,-0.100000)"
fill="#000000" stroke="none">
<path d="M8495 7050 c-435 -31 -1037 -238 -1719 -591 -158 -82 -290 -149 -293
-149 -3 0 -46 19 -97 41 -125 57 -245 98 -309 105 -35 4 -83 1 -136 -10 -74
-15 -316 -95 -481 -159 -185 -72 -490 -221 -655 -320 -269 -162 -694 -488
-722 -554 -12 -29 -12 -38 2 -67 25 -53 75 -72 336 -130 349 -78 409 -93 416
-100 3 -3 -1 -14 -10 -24 -9 -10 -26 -40 -39 -67 -20 -44 -22 -65 -21 -166 l2
-117 -129 -47 c-82 -29 -139 -56 -156 -73 -25 -26 -26 -30 -21 -109 l5 -82
-52 28 c-69 38 -129 53 -201 49 -53 -3 -60 -6 -63 -25 -2 -17 9 -30 48 -56
l51 -34 -98 -7 c-102 -7 -260 -28 -350 -47 -45 -9 -53 -14 -53 -33 0 -19 23
-32 165 -96 91 -40 164 -75 162 -77 -2 -1 -52 -17 -110 -33 -221 -64 -463
-168 -660 -284 -104 -61 -120 -75 -107 -96 7 -11 47 -14 182 -17 95 -2 225
-10 288 -18 194 -26 189 -19 64 -84 -301 -157 -512 -299 -704 -473 -190 -172
-524 -536 -518 -565 5 -28 33 -27 95 3 207 97 345 143 545 180 117 22 162 26
246 21 57 -3 106 -8 110 -11 3 -4 -37 -50 -89 -104 -351 -358 -591 -777 -725
-1268 -20 -75 -23 -98 -14 -110 7 -8 18 -14 24 -14 6 0 55 54 109 119 206 252
525 557 831 795 102 80 226 160 234 152 15 -15 24 -309 14 -470 -6 -94 -9
-174 -6 -178 15 -24 49 0 126 90 186 215 309 397 378 559 19 46 38 83 41 83
13 0 26 -253 19 -385 -5 -77 -6 -143 -4 -147 23 -36 123 76 327 367 109 155
157 247 198 380 27 88 28 89 30 45 1 -25 4 -97 8 -160 6 -114 6 -115 32 -118
66 -8 288 336 346 534 l17 62 31 -52 c24 -39 37 -51 56 -51 22 0 25 6 42 89
16 81 16 98 4 170 -8 45 -12 84 -10 88 2 4 15 3 29 -2 14 -6 41 -10 61 -10 47
0 79 35 154 170 32 58 64 104 71 104 7 -1 51 -9 97 -19 93 -19 160 -15 227 15
l42 18 6 -62 c3 -33 13 -178 21 -321 9 -147 22 -283 31 -312 26 -92 88 -117
161 -64 132 96 485 444 629 621 221 271 431 601 584 915 78 162 92 224 74 346
-8 52 -27 143 -43 202 l-29 109 103 131 c332 427 626 904 803 1307 88 200 182
524 182 625 0 57 -19 60 -235 45z m165 -70 c0 -12 -8 -12 -35 0 -18 8 -17 9 8
9 15 1 27 -3 27 -9z m-152 -66 c63 -24 116 -44 118 -44 2 0 4 7 4 15 0 8 5 15
11 15 6 0 9 -6 6 -14 -3 -8 -9 -31 -13 -51 -5 -28 -10 -35 -23 -30 -70 27
-372 125 -385 125 -10 0 -14 5 -10 11 14 23 109 2 252 -56 79 -31 146 -55 149
-52 17 17 -18 37 -141 81 -75 27 -136 51 -136 53 0 9 53 -8 168 -53z m-176
-49 c203 -68 300 -104 282 -105 -7 0 -67 20 -135 45 -68 25 -173 59 -234 76
-99 28 -149 49 -118 49 7 0 99 -29 205 -65z m-87 -10 c147 -49 213 -74 194
-75 -3 0 -43 13 -90 28 -46 16 -135 41 -196 57 -62 15 -113 31 -113 36 0 17
39 8 205 -46z m-195 6 c84 -25 56 -26 -35 -2 -38 11 -61 20 -50 20 11 1 49 -8
85 -18z m9 -41 c87 -22 234 -67 328 -100 94 -33 176 -60 182 -60 6 0 11 -7 11
-15 0 -8 -5 -15 -11 -15 -6 0 -102 29 -213 64 -110 36 -273 84 -361 107 -151
41 -167 50 -102 58 4 1 79 -17 166 -39z m-39 -59 c80 -22 234 -70 342 -106
l197 -67 -21 -58 c-18 -49 -24 -57 -38 -50 -75 40 -464 173 -658 224 -223 60
-232 63 -197 73 32 10 56 5 243 -53 169 -52 385 -130 574 -207 36 -15 61 4 38
28 -36 35 -472 194 -660 240 -93 23 -99 26 -75 35 11 4 40 1 65 -6 25 -7 110
-31 190 -53z m-320 -47 c145 -35 325 -90 450 -136 134 -50 350 -141 350 -148
0 -3 -4 -12 -10 -20 -7 -12 -21 -9 -87 19 -260 110 -589 223 -797 272 -92 22
-97 24 -71 35 16 6 35 10 44 8 9 -2 63 -15 121 -30z m-95 -43 c61 -17 175 -54
255 -82 179 -62 603 -229 597 -235 -2 -3 -64 19 -138 47 -270 103 -578 202
-765 244 -38 9 -87 21 -109 27 l-40 11 30 13 c17 7 37 11 45 9 8 -2 65 -17
125 -34z m-60 -50 c186 -49 427 -129 651 -215 229 -88 244 -95 244 -106 0 -17
-23 -11 -151 39 -304 119 -645 225 -877 272 -101 21 -110 24 -90 36 35 19 61
16 223 -26z m-155 -31 c140 -30 395 -106 560 -165 149 -54 452 -173 459 -181
3 -2 0 -9 -5 -14 -7 -7 -53 7 -135 41 -300 122 -733 270 -919 314 -41 10 -82
22 -90 26 -17 10 -17 10 130 -21z m-52 -35 c245 -69 518 -166 847 -300 198
-82 194 -80 187 -92 -5 -8 -42 3 -117 33 -362 147 -704 254 -1021 319 -16 4
-23 14 -26 40 -2 19 -3 35 -1 35 2 0 60 -16 131 -35z m-179 -32 c-1 -82 51
-192 165 -353 165 -234 366 -430 591 -577 41 -26 75 -52 75 -56 0 -30 -374
-520 -579 -757 -178 -205 -537 -590 -606 -648 -18 -15 -146 -134 -285 -265
-139 -131 -276 -254 -305 -273 -59 -39 -130 -64 -185 -64 -94 0 -322 83 -460
168 -169 104 -294 220 -448 416 -173 220 -282 505 -286 741 -1 104 1 113 28
162 52 94 81 119 643 549 367 282 844 589 1248 804 213 114 380 198 397 199 4
1 7 -20 7 -46z m246 -83 c145 -38 400 -118 380 -119 -5 0 -59 13 -120 30 -60
17 -182 45 -270 63 -122 26 -161 38 -163 50 -5 22 3 21 173 -24z m-27 -56
c185 -41 438 -116 687 -204 127 -45 238 -84 247 -87 14 -4 15 -9 8 -24 -10
-17 -13 -17 -78 8 -219 84 -501 173 -775 243 -147 37 -192 53 -203 69 -8 12
-12 21 -9 21 3 0 58 -12 123 -26z m-1230 -15 l34 -14 -44 -32 c-23 -17 -55
-41 -69 -54 -14 -13 -38 -34 -52 -46 -44 -37 -255 -175 -432 -283 -93 -56
-249 -155 -345 -218 -254 -167 -368 -236 -490 -297 -114 -57 -314 -135 -346
-135 -11 0 -61 11 -113 24 -92 23 -130 47 -131 83 0 28 344 293 575 443 271
176 597 332 972 466 196 70 258 85 338 80 39 -2 85 -10 103 -17z m119 -45 c-7
-8 -67 8 -62 17 3 4 19 3 36 -3 16 -6 28 -12 26 -14z m1291 -70 c216 -61 706
-224 724 -242 4 -4 -99 28 -230 71 -130 43 -349 108 -486 145 -138 37 -251 73
-254 80 -2 6 0 12 4 12 4 0 113 -30 242 -66z m-1263 31 c6 -2 -25 -4 -68 -4
-43 -1 -76 3 -73 7 5 8 118 5 141 -3z m85 -45 c-20 -13 -283 -13 -275 0 4 6
64 10 148 10 95 0 137 -3 127 -10z m1165 -41 c188 -52 694 -216 708 -229 13
-12 -5 -42 -22 -37 -9 3 -106 38 -216 78 -110 39 -299 101 -419 135 -121 35
-220 65 -220 66 -1 2 -8 11 -15 21 -7 9 -10 17 -5 17 5 0 90 -23 189 -51z
m-1305 -9 c-155 -16 -210 -17 -198 -3 8 10 45 13 142 12 123 -2 126 -2 56 -9z
m1380 -90 c179 -56 532 -181 526 -187 -2 -2 -72 21 -157 50 -85 30 -245 80
-356 113 -117 33 -205 64 -208 72 -3 9 1 12 13 8 9 -3 91 -28 182 -56z m-1450
40 c-82 -11 -210 -17 -204 -11 10 10 93 18 179 18 l90 0 -65 -7z m-30 -49
c-23 -13 -247 -25 -235 -13 14 15 48 19 155 20 57 1 89 -2 80 -7z m1645 -102
c169 -55 394 -134 401 -141 2 -3 1 -13 -2 -22 -4 -10 -10 -14 -13 -9 -9 14
-295 110 -484 164 -93 26 -169 49 -170 51 -1 1 -13 15 -26 30 l-24 27 84 -25
c46 -14 152 -48 234 -75z m-1730 47 c-12 -8 -65 -16 -135 -21 -96 -6 -113 -5
-102 6 11 12 73 20 222 27 32 2 33 1 15 -12z m-100 -66 c-25 -17 -47 -20 -140
-20 -99 0 -107 1 -89 15 14 9 53 15 110 18 49 1 103 4 119 5 l30 2 -30 -20z
m1948 -97 c126 -41 226 -77 224 -80 -3 -2 -49 10 -104 27 -54 17 -170 52 -258
76 -101 28 -167 52 -180 64 l-20 20 55 -16 c30 -8 158 -49 283 -91z m-2033 36
c-8 -5 -66 -9 -129 -9 -94 0 -112 2 -98 13 12 8 51 11 129 9 73 -2 107 -7 98
-13z m2345 -19 c3 -6 -1 -7 -9 -4 -18 7 -21 14 -7 14 6 0 13 -4 16 -10z m-524
-18 c-7 -2 -18 1 -23 6 -8 8 -4 9 13 5 13 -4 18 -8 10 -11z m-1911 -22 c-22
-17 -41 -20 -150 -20 l-125 0 30 19 c25 16 49 20 150 20 l120 1 -25 -20z
m2005 0 c13 -5 14 -9 5 -9 -8 0 -24 4 -35 9 -13 5 -14 9 -5 9 8 0 24 -4 35 -9z
m203 -61 c141 -42 149 -46 140 -54 -2 -3 -69 17 -149 44 -79 27 -140 50 -136
50 5 1 70 -18 145 -40z m-2319 15 c65 -13 15 -24 -112 -24 -117 0 -129 2 -111
15 20 15 162 21 223 9z m2276 -58 c184 -63 183 -73 -3 -20 -130 37 -176 55
-188 75 -8 13 -21 17 191 -55z m-2320 -6 c-4 -6 -62 -10 -143 -10 -92 0 -132
3 -122 10 20 13 273 13 265 0z m2350 -60 c39 -12 76 -24 84 -26 9 -3 11 -8 5
-14 -12 -12 -157 35 -175 56 -9 12 -9 14 2 10 8 -2 46 -14 84 -26z m-2428 3
c-19 -19 -109 -32 -237 -32 l-84 -1 34 25 c33 23 43 24 170 25 126 0 133 -1
117 -17z m-82 -62 c-10 -9 -308 -20 -298 -11 2 3 57 8 121 11 64 3 133 6 152
7 21 1 30 -2 25 -7z m-307 -58 c-10 -2 -28 -2 -40 0 -13 2 -5 4 17 4 22 1 32
-1 23 -4z m202 -23 c-8 -5 -82 -9 -165 -8 l-150 2 135 6 c74 3 149 7 165 8 23
1 26 -1 15 -8z m-110 -47 c-134 -7 -268 -7 -263 0 2 4 75 6 161 5 86 -1 132
-3 102 -5z m-8 -45 c-12 -12 -52 -12 -222 2 -90 7 -87 7 70 8 126 2 161 -1
152 -10z m-77 -50 c7 -6 -2 -7 -25 -3 -19 3 -94 7 -166 8 -73 1 -127 6 -120
10 15 11 299 -2 311 -15z m-53 -34 c23 -14 -8 -19 -79 -13 -43 4 -123 8 -178
8 -73 1 -96 4 -85 12 15 10 324 4 342 -7z m-155 -41 c62 -3 110 -9 108 -13 -3
-4 -24 -6 -47 -3 -24 2 -113 8 -198 12 -124 6 -137 8 -65 9 50 1 140 -1 202
-5z m-117 -34 c85 -6 159 -15 164 -20 6 -5 -96 -9 -244 -9 -139 0 -250 3 -246
8 16 15 73 31 121 31 28 1 120 -4 205 -10z m115 -69 c-7 -12 -205 -12 -250 0
-18 5 25 8 113 9 93 1 141 -2 137 -9z m2662 -450 l20 -85 -40 -90 c-143 -324
-464 -750 -788 -1045 -57 -52 -108 -100 -114 -106 -22 -24 -269 -226 -284
-232 -9 -3 -24 -16 -33 -28 -10 -12 -31 -27 -48 -32 -27 -10 -30 -9 -31 11 0
12 -6 103 -14 202 l-13 180 36 34 c21 19 145 134 277 256 297 275 617 600 833
848 91 103 168 185 172 180 4 -4 17 -46 27 -93z m-2827 -116 c0 -9 -10 -14
-28 -14 -41 0 -47 12 -15 26 31 13 43 10 43 -12z m-7 -58 c43 -19 19 -18 -88
3 -49 10 -81 20 -70 22 28 6 120 -9 158 -25z m-58 -38 c49 -10 91 -21 94 -24
12 -11 -11 -10 -89 7 -47 10 -106 21 -133 24 -26 4 -45 10 -42 15 6 10 46 5
170 -22z m-122 -25 c-7 -2 -21 -2 -30 0 -10 3 -4 5 12 5 17 0 24 -2 18 -5z
m60 -10 c-7 -2 -19 -2 -25 0 -7 3 -2 5 12 5 14 0 19 -2 13 -5z m44 -9 c-3 -3
-12 -4 -19 -1 -8 3 -5 6 6 6 11 1 17 -2 13 -5z m-28 -49 c67 -19 125 -35 128
-35 4 0 4 -2 1 -5 -7 -7 -260 55 -272 66 -18 16 18 10 143 -26z m156 14 c13
-13 -3 -10 -45 7 l-35 14 35 -6 c19 -3 39 -10 45 -15z m2803 4 c-10 -2 -26 -2
-35 0 -10 3 -2 5 17 5 19 0 27 -2 18 -5z m-13 -33 c16 -7 12 -9 -18 -9 -23 -1
-36 3 -32 9 7 12 23 12 50 0z m-2906 -50 c139 -35 195 -59 179 -75 -3 -4 -48
5 -99 19 -52 14 -130 30 -174 37 -44 7 -81 13 -82 13 -1 1 -5 14 -9 30 -6 26
-5 28 12 22 10 -4 88 -25 173 -46z m-314 -1 c71 -34 83 -49 104 -129 10 -41
37 -118 60 -169 22 -52 38 -97 36 -99 -3 -3 -34 0 -69 6 -49 8 -90 7 -178 -4
-170 -23 -177 -43 -37 -117 50 -27 129 -73 177 -104 l86 -56 -144 -42 c-186
-54 -381 -127 -393 -147 -22 -34 -2 -45 95 -52 80 -7 179 -24 241 -42 14 -4 5
-14 -40 -46 -128 -90 -275 -209 -416 -337 -126 -114 -148 -138 -145 -160 2
-14 10 -27 19 -29 9 -1 114 42 235 97 120 54 220 98 221 97 1 -1 -20 -62 -46
-136 -35 -98 -46 -140 -40 -152 26 -49 110 15 232 177 54 72 128 168 165 215
l66 85 7 -32 c3 -17 9 -84 13 -149 11 -173 24 -192 89 -134 39 33 51 60 103
223 20 64 40 117 43 117 3 0 22 -28 41 -61 45 -79 73 -109 103 -109 34 0 58
31 117 150 29 58 54 106 55 108 2 2 18 -4 37 -14 18 -10 78 -36 133 -59 58
-25 100 -48 100 -56 1 -8 5 -44 9 -81 4 -36 5 -89 1 -118 l-7 -52 -32 54 c-25
41 -38 53 -57 53 -22 0 -26 -8 -46 -84 -44 -167 -117 -318 -222 -456 l-46 -60
-6 110 c-9 143 -36 306 -55 325 -28 29 -47 0 -60 -92 -23 -159 -73 -303 -147
-428 -37 -61 -220 -316 -267 -371 l-29 -34 -1 148 c0 148 -29 387 -51 429 -6
11 -19 18 -31 16 -16 -2 -24 -19 -43 -93 -52 -206 -203 -462 -389 -660 l-47
-50 7 135 c5 120 -7 379 -22 453 -10 49 -47 36 -224 -83 -191 -129 -681 -568
-830 -743 -58 -69 -106 -123 -108 -122 -5 5 73 216 124 334 87 201 218 425
348 591 82 106 246 289 303 338 80 69 72 91 -43 118 -157 37 -484 -14 -756
-119 -38 -14 -68 -22 -68 -17 0 21 471 480 560 547 169 125 400 264 622 374
143 71 132 89 -77 124 -83 13 -219 28 -304 32 l-154 8 94 50 c244 129 490 221
752 279 19 5 27 12 27 29 0 19 -23 32 -167 96 -91 41 -162 76 -157 77 26 8
284 34 382 40 132 7 148 19 91 67 -31 26 -32 28 -9 22 14 -4 43 -15 65 -26z
m3203 4 c-10 -2 -28 -2 -40 0 -13 2 -5 4 17 4 22 1 32 -1 23 -4z m-3 -42 c-6
-6 -25 -6 -45 -1 l-35 8 45 1 c27 1 40 -3 35 -8z m-2847 -46 c96 -25 176 -45
178 -45 2 0 4 -4 4 -9 0 -5 -48 3 -107 19 -60 15 -147 33 -195 40 -60 9 -88
17 -88 27 0 20 20 17 208 -32z m2822 -5 c0 -5 -18 -10 -40 -10 -22 0 -40 5
-40 10 0 6 18 10 40 10 22 0 40 -4 40 -10z m-2912 -30 c158 -37 303 -77 314
-88 5 -5 -42 5 -105 23 -64 18 -153 41 -199 50 -46 10 -90 21 -98 26 -23 13
-8 11 88 -11z m2886 -25 c-4 -10 -20 -15 -50 -15 -49 0 -55 6 -21 20 37 15 77
12 71 -5z m-2739 -66 c168 -37 229 -58 214 -73 -7 -8 -439 107 -439 116 0 5 8
7 18 5 9 -3 103 -24 207 -48z m2705 17 c0 -26 -16 -36 -61 -36 -47 0 -49 1
-37 20 10 15 24 20 55 20 24 0 43 -2 43 -4z m-2600 -97 c131 -29 147 -35 170
-62 20 -26 22 -30 6 -24 -30 12 -399 116 -440 124 -22 5 -41 14 -43 20 -3 7
24 5 79 -8 46 -10 148 -33 228 -50z m2558 11 c-14 -22 -17 -22 -70 -14 -58 10
-38 34 28 34 52 0 54 -1 42 -20z m-2748 -25 c155 -37 406 -108 418 -119 7 -7
-60 7 -150 30 -90 23 -207 52 -260 64 -54 12 -98 26 -98 31 0 12 14 11 90 -6z
m2697 -25 c22 0 24 -2 13 -15 -8 -10 -31 -15 -66 -15 -52 0 -54 1 -42 21 10
15 20 19 42 15 16 -3 40 -6 53 -6z m-2496 -85 c139 -30 257 -59 263 -65 13
-13 10 -13 -89 10 -66 15 -406 80 -420 80 -2 0 -5 7 -9 15 -3 8 -4 15 -2 15 2
0 118 -25 257 -55z m2474 15 c-3 -5 -34 -10 -68 -9 -44 0 -56 3 -42 9 29 12
118 12 110 0z m-2732 -99 c96 -161 323 -398 457 -478 l28 -16 -46 -90 c-68
-130 -65 -126 -85 -116 -9 5 -37 47 -62 93 -47 87 -67 105 -92 84 -28 -23 -83
-147 -108 -243 -36 -139 -42 -144 -50 -39 -14 171 -37 239 -81 239 -20 0 -144
-147 -264 -315 -98 -138 -106 -140 -64 -18 36 109 40 151 12 156 -9 2 -92 -31
-185 -73 -92 -41 -161 -69 -153 -61 65 61 261 217 383 304 81 57 147 109 147
116 0 6 -4 16 -8 22 -8 14 -133 53 -217 69 l-60 11 80 29 c44 16 148 48 230
70 142 38 150 42 150 65 0 28 -66 77 -238 180 l-99 59 39 4 c21 2 86 4 144 5
l107 2 35 -59z m593 -53 c10 -10 -56 -2 -248 30 -262 43 -289 49 -295 68 -5
15 526 -81 543 -98z m2108 97 c-5 -11 -22 -15 -64 -15 -55 0 -78 9 -63 24 3 3
35 6 69 6 52 0 62 -3 58 -15z m-36 -50 c1 -1 0 -10 -4 -19 -5 -13 -21 -16 -80
-16 l-74 0 15 23 c13 21 21 23 77 19 35 -2 64 -5 66 -7z m-2218 -70 c107 -16
200 -32 205 -38 16 -15 -118 -1 -319 33 -98 17 -186 30 -195 28 -18 -3 -41 9
-41 21 0 5 35 3 78 -4 42 -7 165 -25 272 -40z m2170 -1 c-35 -7 -148 -9 -144
-2 3 4 40 7 82 7 42 -1 70 -3 62 -5z m-2370 -33 l45 -8 -37 -2 c-26 -1 -38 -6
-38 -15 0 -8 4 -17 8 -20 12 -7 355 -54 452 -61 81 -6 156 -22 147 -31 -2 -3
-136 9 -298 26 -287 30 -294 31 -322 58 -16 15 -33 35 -38 45 -11 20 4 21 81
8z m2355 -11 c-7 -11 -47 -18 -132 -23 -49 -2 -60 -1 -52 9 12 15 43 20 127
23 38 0 61 -3 57 -9z m-2118 -26 c-3 -3 -12 -4 -19 -1 -8 3 -5 6 6 6 11 1 17
-2 13 -5z m238 -25 c12 -12 -23 -10 -120 6 l-80 13 95 -5 c52 -3 99 -9 105
-14z m1835 -9 c-9 -16 -21 -20 -68 -20 -31 0 -75 -3 -97 -7 l-40 -6 19 21 c18
21 43 26 154 30 40 2 42 1 32 -18z m-46 -64 c-5 -12 -102 -26 -187 -26 -29 0
-30 0 -12 20 16 17 31 20 111 20 75 0 92 -3 88 -14z m-1895 -21 c156 -13 286
-26 289 -29 7 -8 13 -8 -321 18 -164 14 -301 27 -304 30 -10 10 36 7 336 -19z
m1855 -35 c-13 -13 -232 -26 -219 -12 6 6 46 13 90 15 44 1 93 4 110 5 18 1
26 -1 19 -8z m-1829 -20 c94 -5 208 -10 255 -10 47 0 92 -5 100 -11 11 -7 -33
-9 -152 -4 -216 8 -486 30 -496 39 -4 5 22 5 58 2 36 -4 142 -11 235 -16z
m1790 -39 c-6 -5 -63 -11 -127 -13 -92 -2 -114 0 -106 10 7 8 46 12 126 12 71
0 112 -4 107 -9z m-1988 -7 c-3 -3 -12 -4 -19 -1 -8 3 -5 6 6 6 11 1 17 -2 13
-5z m1936 -59 c-14 -20 -24 -24 -47 -20 -16 3 -69 5 -119 5 -89 0 -90 0 -72
20 16 18 31 20 137 20 l119 0 -18 -25z m-1312 -3 c-8 -16 -27 -20 -117 -25
-59 -4 -172 -7 -250 -7 -125 0 -148 3 -176 20 l-33 20 185 3 c102 1 234 3 293
5 102 2 107 1 98 -16z m1256 -56 c17 -17 -23 -25 -149 -28 l-137 -3 27 23 c25
22 34 23 140 19 62 -3 116 -7 119 -11z m-1293 -10 c-9 -24 -337 -41 -375 -20
-21 12 -11 13 91 15 63 1 142 5 175 9 101 12 115 12 109 -4z m1236 -61 c-10
-12 -40 -15 -153 -15 -126 0 -139 2 -121 15 14 11 51 14 153 15 117 0 132 -2
121 -15z m-1302 -2 c-10 -2 -26 -2 -35 0 -10 3 -2 5 17 5 19 0 27 -2 18 -5z
m-125 -19 c-3 -8 -12 -13 -20 -10 -8 3 -19 6 -24 6 -6 0 -7 5 -4 10 3 6 17 10
30 10 18 0 23 -4 18 -16z m105 -21 c-10 -2 -26 -2 -35 0 -10 3 -2 5 17 5 19 0
27 -2 18 -5z m1222 -13 c41 -5 16 -7 -100 -8 -103 -1 -150 2 -140 8 17 11 160
11 240 0z m-5 -60 c-19 -18 -29 -19 -169 -13 -128 5 -146 8 -130 20 13 9 58
13 168 13 150 0 150 0 131 -20z m-127 -47 c46 -3 79 -10 75 -14 -5 -5 -86 -10
-181 -11 -166 -3 -172 -2 -151 15 23 19 105 22 257 10z m1 -57 c-2 -2 -80 -7
-174 -10 -117 -5 -165 -4 -155 3 14 10 339 16 329 7z m-251 -83 c-10 -2 -26
-2 -35 0 -10 3 -2 5 17 5 19 0 27 -2 18 -5z m42 -44 c-63 -4 -132 -9 -152 -11
-26 -2 -38 1 -38 9 0 10 35 13 153 12 l152 -2 -115 -8z m63 -39 c-14 -13 -253
-20 -253 -7 0 9 39 12 131 13 72 1 127 -2 122 -6z m-48 -49 c-14 -12 -195 -23
-195 -11 0 5 30 11 68 13 37 2 83 4 102 5 20 1 30 -2 25 -7z m-80 -58 c-83
-20 -95 -20 -106 -7 -10 12 0 14 57 13 38 -1 60 -3 49 -6z"/>
<path d="M6560 5854 c-285 -61 -488 -326 -466 -608 12 -145 62 -253 165 -357
137 -137 355 -203 556 -166 212 39 351 141 442 324 31 64 36 84 41 167 6 122
-9 199 -61 306 -32 68 -57 101 -122 166 -156 156 -346 213 -555 168z m347 -75
c103 -61 227 -198 288 -319 75 -147 50 -349 -59 -479 -138 -164 -367 -240
-576 -191 -223 51 -381 240 -397 470 -13 201 69 353 249 462 121 74 212 98
345 94 84 -3 97 -6 150 -37z"/>
<path d="M6645 5714 c-64 -10 -163 -49 -216 -85 -235 -159 -250 -459 -33 -675
155 -156 442 -145 624 23 96 88 135 194 128 346 -3 77 -9 102 -35 157 -48 101
-129 172 -239 211 -58 21 -170 32 -229 23z m155 -55 c121 -28 230 -116 275
-221 l14 -35 -118 5 c-127 5 -239 -4 -225 -18 11 -11 227 -40 300 -40 l54 0 0
-45 0 -45 -115 6 c-79 5 -115 4 -115 -4 0 -10 158 -52 199 -52 26 0 26 -6 1
-65 -63 -146 -221 -246 -392 -246 -68 0 -89 4 -144 30 -77 36 -147 105 -191
187 -30 58 -59 142 -50 150 2 3 50 -2 105 -11 136 -20 312 -21 312 -1 0 8 -8
14 -17 14 -21 -1 -396 62 -401 67 -2 2 1 20 8 39 l12 36 76 0 c68 1 75 2 59
14 -10 8 -41 17 -68 21 l-49 7 32 45 c50 69 160 142 245 162 53 12 139 12 193
0z"/>
</g>
</svg>
